<svg version="1.1" id="Ebene_1" xmlns="http://www.w3.org/2000/svg" x="0" y="0" viewBox="0 0 354.3 283.5" style="enable-background:new 0 0 354.3 283.5" xml:space="preserve"><style>.st2{fill:#6B7280;stroke:#6B7280;stroke-width:7;stroke-miterlimit:10}</style><g id="Invoice"><path d="M316.5 256h-279c-15.6 0-28.3-12.8-28.3-28.3V58.6C9.2 43 22 30.3 37.5 30.3h278.9c15.6 0 28.3 12.8 28.3 28.3v169.1c.1 15.6-12.6 28.3-28.2 28.3z" style="fill:none;stroke:#6B7280;stroke-width:16;stroke-miterlimit:10"/><path class="st2" d="M304.1 139.8H59.7c-2.4 0-4.3-1.9-4.3-4.3v-1.2c0-2.4 1.9-4.3 2.2-4.3H302c4.5 0 6.4 1.9 6.4 4.3v1.2c0 2.4-1.9 4.3-4.3 4.3zM210.4 175.4h-151c-2.4 0-4.3-1.9-4.3-4.3v-1.2c0-2.4 1.9-4.3 2.2-4.3h151c4.5 0 6.4 1.9 6.4 4.3v1.2c0 2.4-1.9 4.3-4.3 4.3zM210.4 90.2h-151c-2.4 0-4.3-1.9-4.3-4.3v-1.2c0-2.4 1.9-4.3 2.2-4.3h151c4.5 0 6.4 1.9 6.4 4.3v1.2c0 2.4-1.9 4.3-4.3 4.3zM300.1 220.4h-44.6c-.7 0-1.3-1.9-1.3-4.3v-1.2c0-2.4.6-4.3.7-4.3h44.6c1.3 0 1.9 1.9 1.9 4.3v1.2c-.1 2.3-.6 4.3-1.3 4.3zM235.5 220.4h-24.4c-.4 0-.7-1.9-.7-4.3v-1.2c0-2.4.3-4.3.4-4.3h24.4c.7 0 1 1.9 1 4.3v1.2c0 2.3-.3 4.3-.7 4.3z"/></g></svg>
