<svg xmlns="http://www.w3.org/2000/svg" version="1.2" viewBox="0 0 216 137.21"><path d="M216 137.21H0V0h216v137.21" fill="#fff"/><path d="M3.598 114.914h208.8v18.723H3.598v-18.723" fill="#f9ab0c"/><path d="M3.598 22.32h208.8V3.598H3.598V22.32m102.597 20.621L95.191 94.398H81.88l11.008-51.457zM162.2 76.168l7.012-19.324 4.027 19.324zm14.863 18.23h12.305l-10.754-51.457h-11.351c-2.563 0-4.715 1.485-5.672 3.774l-19.977 47.683h13.985l2.773-7.683h17.074zm-34.753-16.8c.058-13.578-18.774-14.332-18.649-20.399.043-1.844 1.8-3.808 5.649-4.308 1.906-.246 7.164-.446 13.129 2.3l2.332-10.914c-3.208-1.16-7.329-2.273-12.454-2.273-13.16 0-22.418 6.988-22.492 17.008-.086 7.406 6.614 11.539 11.649 14.004 5.191 2.523 6.93 4.14 6.906 6.394-.035 3.45-4.14 4.98-7.961 5.035-6.695.106-10.578-1.808-13.672-3.25l-2.418 11.282c3.117 1.425 8.86 2.664 14.8 2.73 13.99 0 23.142-6.91 23.18-17.61M87.177 42.942l-21.57 51.457h-14.07L40.921 53.332c-.64-2.523-1.203-3.453-3.16-4.52-3.203-1.738-8.485-3.363-13.133-4.374l.316-1.497h22.649c2.886 0 5.484 1.922 6.14 5.246l5.61 29.778L73.19 42.94h13.985" fill="#1d337a"/></svg>